<svg width="20" height="20" viewBox="0 0 20 20" fill="none" xmlns="http://www.w3.org/2000/svg">
    <rect width="20" height="20" rx="10" fill="white" />
    <path fill-rule="evenodd" clip-rule="evenodd" d="M12.574 7.16101C11.9157 6.54559 11.0372 6.21032 10.1282 6.2241C8.46487 6.2241 7.0522 7.32406 6.54851 8.80521L6.54774 8.80463V8.80488C6.28067 9.58105 6.28067 10.4215 6.54774 11.1977L6.54759 11.1978H6.55086C7.05689 12.6767 8.46721 13.7766 10.1306 13.7766C10.9886 13.7766 11.7253 13.5616 12.2965 13.1819V13.1805C12.9688 12.7442 13.428 12.0576 13.5709 11.2814H10.1271V8.87482H16.1409C16.2159 9.29276 16.251 9.71988 16.251 10.1447C16.251 12.045 15.5584 13.6517 14.3532 14.7401L14.3545 14.7411C13.2979 15.6964 11.8478 16.2498 10.1282 16.2498C7.71754 16.2498 5.51302 14.9179 4.43068 12.8076V12.8069L4.42991 12.8074C3.52561 11.0415 3.52561 8.96104 4.42991 7.19513H4.43085C5.51325 5.08266 7.71766 3.75091 10.1282 3.75091C11.7119 3.73254 13.2417 4.31582 14.3943 5.37674L12.574 7.16101Z" fill="#0059fc" />
</svg>
